<?xml version="1.0" encoding="utf-8"?>
<!-- Generator: Adobe Illustrator 25.2.0, SVG Export Plug-In . SVG Version: 6.00 Build 0)  -->
<svg version="1.1" id="Warstwa_1" xmlns="http://www.w3.org/2000/svg" xmlns:xlink="http://www.w3.org/1999/xlink" x="0px" y="0px"
	 viewBox="0 0 1000 1000" style="enable-background:new 0 0 1000 1000;" xml:space="preserve">
<style type="text/css">
	.st0{fill:#D4D4D4;}
	.st1{fill:#A1A1A1;}
	.st2{fill:#D6D6D6;}
</style>
<path class="st0" d="M500,100.42c-221.45,0-400.97,179.52-400.97,400.97S278.55,902.35,500,902.35s400.97-179.52,400.97-400.97
	S721.45,100.42,500,100.42z M500,885.7c-212.25,0-384.32-172.07-384.32-384.32S287.75,117.07,500,117.07
	s384.32,172.07,384.32,384.32S712.25,885.7,500,885.7z"/>
<g>
	<path class="st1" d="M500,0.53c-95.26,0-184.29,26.67-260.03,72.95c-13.89,8.48-27.32,17.62-40.26,27.39
		c-11.89,8.94-23.36,18.41-34.39,28.37c-34.37,31.05-64.39,66.79-89.06,106.24C28.26,312.18,0.53,402.85,0.53,500
		c0,275.85,223.63,499.47,499.47,499.47c97.15,0,187.82-27.73,264.53-75.74c39.44-24.65,75.18-54.68,106.24-89.05
		c9.96-11.03,19.44-22.5,28.39-34.39c9.75-12.94,18.9-26.38,27.37-40.26c46.28-75.74,72.95-164.77,72.95-260.03
		C999.47,224.15,775.85,0.53,500,0.53z M881.92,715.43c-8.05,14.26-16.87,28.01-26.43,41.22c-8.73,12.08-18.08,23.7-27.96,34.81
		c-30.86,34.64-67.11,64.36-107.47,87.81c-64.67,37.61-139.85,59.16-220.06,59.16C257.87,938.43,61.57,742.13,61.57,500
		c0-80.21,21.55-155.39,59.16-220.06c23.45-40.36,53.17-76.61,87.81-107.47c11.11-9.88,22.73-19.23,34.81-27.96
		c13.21-9.56,26.96-18.38,41.22-26.43C348.2,82.09,421.71,61.57,500,61.57c242.13,0,438.43,196.29,438.43,438.43
		C938.43,578.29,917.91,651.8,881.92,715.43z"/>
	<path class="st0" d="M165.31,129.24l43.23,43.23c-34.64,30.86-64.36,67.11-87.81,107.47l-44.48-44.47
		C100.92,196.03,130.94,160.29,165.31,129.24z"/>
	<path class="st0" d="M870.76,834.69c-31.05,34.37-66.79,64.39-106.24,89.05l-44.47-44.47c40.36-23.45,76.61-53.17,107.47-87.81
		L870.76,834.69z"/>
	<path class="st0" d="M239.97,73.48l44.61,44.61c-14.26,8.05-28.01,16.87-41.22,26.43l-43.65-43.65
		C212.65,91.1,226.08,81.95,239.97,73.48z"/>
	<path class="st0" d="M926.52,760.03c-8.48,13.89-17.62,27.32-27.37,40.26l-43.66-43.65c9.56-13.21,18.38-26.96,26.43-41.22
		L926.52,760.03z"/>
</g>
<g>
	<g>
		<path class="st2" d="M789.83,462.44h-10.69v-40.82c0-16.26-13.23-29.48-29.48-29.48h-20.09c-3.77,0-7.37,0.72-10.69,2.01v-12.7
			c0-16.26-13.23-29.48-29.48-29.48h-40.17c-16.26,0-29.48,13.23-29.48,29.48v80.99H377.43v-80.99c0-16.26-13.23-29.48-29.48-29.48
			h-40.17c-16.26,0-29.48,13.23-29.48,29.48v12.7c-3.32-1.3-6.92-2.01-10.69-2.01h-20.09c-16.26,0-29.48,13.23-29.48,29.48v40.82
			h-10.69c-16.26,0-29.48,13.22-29.48,29.48v40.17c0,16.26,13.23,29.48,29.48,29.48h10.69v40.82c0,16.26,13.23,29.48,29.48,29.48
			h20.09c3.77,0,7.37-0.72,10.69-2.01v12.7c0,16.26,13.23,29.48,29.48,29.48h40.17c16.26,0,29.48-13.23,29.48-29.48v-80.99h242.32
			v80.99c0,16.26,13.23,29.48,29.48,29.48h40.17c16.26,0,29.48-13.23,29.48-29.48v-12.7c3.32,1.3,6.92,2.01,10.69,2.01h20.09
			c16.26,0,29.48-13.23,29.48-29.48v-40.82h10.69c16.26,0,29.48-13.23,29.48-29.48v-40.17
			C819.31,475.66,806.09,462.44,789.83,462.44z M218.04,542.78h-10.69v0c-5.89,0-10.69-4.8-10.69-10.69v-40.17
			c0-5.89,4.8-10.69,10.69-10.69h10.69V542.78z M347.95,653.25h-40.17c-5.89,0-10.69-4.8-10.69-10.69v-50.21
			c0-5.19-4.21-9.4-9.4-9.4s-9.4,4.21-9.4,9.4v10.04c0,5.89-4.8,10.69-10.69,10.69h-20.09c-5.89,0-10.69-4.8-10.69-10.69V421.62
			c0-5.89,4.8-10.69,10.69-10.69h20.09c5.89,0,10.69,4.8,10.69,10.69v130.56c0,5.19,4.21,9.4,9.4,9.4c5.19,0,9.4-4.21,9.4-9.4
			V381.45c0-5.89,4.8-10.69,10.69-10.69h40.17c5.89,0,10.69,4.8,10.69,10.69v261.11h0C358.64,648.45,353.85,653.25,347.95,653.25z
			 M619.75,542.78H377.43v-61.55h242.32V542.78z M760.35,602.39c0,5.89-4.8,10.69-10.69,10.69h-20.09c-5.89,0-10.69-4.8-10.69-10.69
			V471.83c0-5.19-4.21-9.4-9.4-9.4c-5.19,0-9.4,4.21-9.4,9.4v170.73c0,5.89-4.8,10.69-10.69,10.69h-40.17
			c-5.89,0-10.69-4.8-10.69-10.69V381.45c0-5.89,4.8-10.69,10.69-10.69h40.17c5.89,0,10.69,4.8,10.69,10.69v50.21
			c0,5.19,4.21,9.4,9.4,9.4c5.19,0,9.4-4.21,9.4-9.4v-10.04c0-5.89,4.8-10.69,10.69-10.69h20.09c5.89,0,10.69,4.8,10.69,10.69
			V602.39z M800.52,532.09c0,5.89-4.8,10.69-10.69,10.69h-10.69v-61.55h10.69c5.89,0,10.69,4.8,10.69,10.69V532.09z"/>
	</g>
</g>
</svg>
