<?xml version="1.0" encoding="utf-8"?>
<!-- Generator: Adobe Illustrator 25.2.0, SVG Export Plug-In . SVG Version: 6.00 Build 0)  -->
<svg version="1.1" id="Warstwa_1" xmlns="http://www.w3.org/2000/svg" xmlns:xlink="http://www.w3.org/1999/xlink" x="0px" y="0px"
	 viewBox="0 0 1000 1000" style="enable-background:new 0 0 1000 1000;" xml:space="preserve">
<style type="text/css">
	.st0{fill:#CFE1FD;}
	.st1{fill:#C4C8D1;}
	.st2{fill:#7293A8;}
</style>
<path class="st0" d="M500,101.68c-220.75,0-399.7,178.95-399.7,399.7s178.95,399.7,399.7,399.7s399.7-178.95,399.7-399.7
	S720.75,101.68,500,101.68z M500,884.49c-211.58,0-383.1-171.52-383.1-383.1s171.52-383.1,383.1-383.1s383.1,171.52,383.1,383.1
	S711.58,884.49,500,884.49z"/>
<g>
	<path class="st1" d="M500,2.11c-94.96,0-183.71,26.58-259.21,72.72c-13.84,8.45-27.23,17.56-40.14,27.3
		c-11.85,8.91-23.29,18.35-34.29,28.28c-34.26,30.95-64.19,66.58-88.78,105.9C29.75,312.78,2.11,403.16,2.11,500
		c0,274.98,222.92,497.89,497.89,497.89c96.84,0,187.22-27.65,263.69-75.5c39.32-24.58,74.95-54.51,105.9-88.76
		c9.93-11,19.38-22.43,28.3-34.29c9.72-12.9,18.84-26.29,27.29-40.14c46.14-75.5,72.72-164.25,72.72-259.21
		C997.89,225.02,774.98,2.11,500,2.11z M880.71,714.74c-8.02,14.22-16.82,27.92-26.35,41.09c-8.7,12.05-18.02,23.62-27.87,34.7
		c-30.76,34.53-66.9,64.16-107.13,87.53C654.9,915.56,579.95,937.04,500,937.04C258.63,937.04,62.96,741.37,62.96,500
		c0-79.95,21.48-154.9,58.97-219.36c23.37-40.23,53-76.37,87.53-107.13c11.08-9.85,22.65-19.17,34.7-27.87
		c13.17-9.53,26.87-18.33,41.09-26.35C348.68,83.41,421.96,62.96,500,62.96c241.37,0,437.04,195.67,437.04,437.04
		C937.04,578.04,916.59,651.32,880.71,714.74z"/>
	<path class="st0" d="M166.37,130.41l43.1,43.1c-34.53,30.76-64.16,66.9-87.53,107.13l-44.34-44.33
		C102.18,196.99,132.11,161.36,166.37,130.41z"/>
	<path class="st0" d="M869.59,833.63c-30.95,34.26-66.58,64.19-105.9,88.76l-44.33-44.33c40.23-23.37,76.37-53,107.13-87.53
		L869.59,833.63z"/>
	<path class="st0" d="M240.79,74.83l44.46,44.46c-14.22,8.02-27.92,16.82-41.09,26.35l-43.51-43.51
		C213.56,92.39,226.95,83.28,240.79,74.83z"/>
	<path class="st0" d="M925.17,759.21c-8.45,13.84-17.56,27.23-27.29,40.14l-43.52-43.51c9.53-13.17,18.33-26.87,26.35-41.09
		L925.17,759.21z"/>
</g>
<g>
	<g>
		<path class="st2" d="M793.25,462.56h-10.66v-40.69c0-16.21-13.18-29.39-29.39-29.39h-20.02c-3.76,0-7.35,0.72-10.66,2.01v-12.66
			c0-16.21-13.18-29.39-29.39-29.39h-40.04c-16.21,0-29.39,13.18-29.39,29.39v80.73H382.15v-80.73c0-16.21-13.18-29.39-29.39-29.39
			h-40.04c-16.21,0-29.39,13.18-29.39,29.39v12.66c-3.31-1.29-6.9-2.01-10.66-2.01h-20.02c-16.21,0-29.39,13.18-29.39,29.39v40.69
			h-10.66c-16.21,0-29.39,13.18-29.39,29.39v40.04c0,16.21,13.18,29.39,29.39,29.39h10.66v40.69c0,16.21,13.18,29.39,29.39,29.39
			h20.02c3.76,0,7.35-0.72,10.66-2.01v12.66c0,16.21,13.18,29.39,29.39,29.39h40.04c16.21,0,29.39-13.18,29.39-29.39v-80.73H623.7
			v80.73c0,16.21,13.18,29.39,29.39,29.39h40.04c16.21,0,29.39-13.18,29.39-29.39v-12.66c3.31,1.29,6.9,2.01,10.66,2.01h20.02
			c16.21,0,29.39-13.18,29.39-29.39v-40.69h10.66c16.21,0,29.39-13.18,29.39-29.39v-40.04
			C822.63,475.74,809.45,462.56,793.25,462.56z M223.26,542.64h-10.66v0c-5.88,0-10.66-4.78-10.66-10.66v-40.04
			c0-5.88,4.78-10.66,10.66-10.66h10.66V542.64z M352.76,652.76h-40.04c-5.88,0-10.66-4.78-10.66-10.66v-50.06
			c0-5.17-4.19-9.37-9.37-9.37c-5.17,0-9.37,4.19-9.37,9.37v10.01c0,5.88-4.78,10.66-10.66,10.66h-20.02
			c-5.88,0-10.66-4.78-10.66-10.66v-180.2c0-5.88,4.78-10.66,10.66-10.66h20.02c5.88,0,10.66,4.78,10.66,10.66v130.15
			c0,5.17,4.19,9.37,9.37,9.37c5.17,0,9.37-4.19,9.37-9.37V381.82c0-5.88,4.78-10.66,10.66-10.66h40.04
			c5.88,0,10.66,4.78,10.66,10.66v260.28h0C363.42,647.98,358.64,652.76,352.76,652.76z M623.7,542.64H382.15v-61.36H623.7V542.64z
			 M763.86,602.06c0,5.88-4.78,10.66-10.66,10.66h-20.02c-5.88,0-10.66-4.78-10.66-10.66V471.92c0-5.17-4.19-9.37-9.37-9.37
			s-9.37,4.19-9.37,9.37v170.19c0,5.88-4.78,10.66-10.66,10.66h-40.04c-5.88,0-10.66-4.78-10.66-10.66V381.82
			c0-5.88,4.78-10.66,10.66-10.66h40.04c5.88,0,10.66,4.78,10.66,10.66v50.06c0,5.17,4.19,9.37,9.37,9.37s9.37-4.19,9.37-9.37
			v-10.01c0-5.88,4.78-10.66,10.66-10.66h20.02c5.88,0,10.66,4.78,10.66,10.66V602.06z M803.9,531.99c0,5.88-4.78,10.66-10.66,10.66
			h-10.66v-61.36h10.66c5.88,0,10.66,4.78,10.66,10.66V531.99z"/>
	</g>
</g>
</svg>
