<?xml version="1.0" encoding="utf-8"?>
<!-- Generator: Adobe Illustrator 25.0.0, SVG Export Plug-In . SVG Version: 6.00 Build 0)  -->
<svg version="1.1" id="Warstwa_1" xmlns="http://www.w3.org/2000/svg" xmlns:xlink="http://www.w3.org/1999/xlink" x="0px" y="0px"
	 viewBox="0 0 1920 201.52" style="enable-background:new 0 0 1920 201.52;" xml:space="preserve">
<style type="text/css">
	.st0{fill:none;stroke:#DE6800;stroke-width:3;stroke-miterlimit:10;}
	.st1{fill:none;stroke:#D10300;stroke-width:3;stroke-miterlimit:10;}
</style>
<path class="st0" d="M1925.32,155.41c-54.19-16.74-112.23-23.54-169.14-27.14c-119.14-7.54-238.32-3.07-357.51,5.7
	c-266.25,19.6-532.48,60.71-798.15,37.67C392.21,153.58,189.31,96.27-4.73,17.6"/>
<path class="st1" d="M-0.18,68.08c114.04,67.78,252.04,95.56,383.14,74.2c84.74-13.81,165.15-46.63,248.67-66.54
	c251.03-59.82,510.24-0.51,765.87,48.16c35.2,6.7,70.34,13.2,105.38,19.16c137.9,23.45,277.22,38.5,416.94,45.09"/>
</svg>
