<?xml version="1.0" encoding="utf-8"?>
<!-- Generator: Adobe Illustrator 25.0.0, SVG Export Plug-In . SVG Version: 6.00 Build 0)  -->
<svg version="1.1" id="Warstwa_1" xmlns="http://www.w3.org/2000/svg" xmlns:xlink="http://www.w3.org/1999/xlink" x="0px" y="0px"
	 viewBox="0 0 1562.8 221.4" style="enable-background:new 0 0 1562.8 221.4;" xml:space="preserve">
<style type="text/css">
	.st0{fill:#FFFFFF;}
	.st1{fill:#00BBFF;}
</style>
<g>
	<g>
		<g>
			<rect class="st0" width="243.5" height="43.3"/>
		</g>
		<g>
			<rect x="66.7" class="st0" width="43.3" height="154.8"/>
		</g>
		<g>
			<rect x="200.2" class="st0" width="43.3" height="154.8"/>
		</g>
	</g>
	<g>
		<g>
			<rect x="35.8" y="178.1" class="st1" width="207.7" height="43.3"/>
		</g>
		<g>
			<rect x="133.4" y="66.7" class="st1" width="43.3" height="154.8"/>
		</g>
		<g>
			<rect y="66.7" class="st1" width="43.3" height="154.8"/>
		</g>
	</g>
</g>
<g>
	<path class="st0" d="M393.5,61.7h-69.2v34.2h68.3v23.2h-68.3v65.2h-28V37.2h97.2L393.5,61.7L393.5,61.7z"/>
	<path class="st0" d="M435.9,59.2h-27.6V31.6h27.6V59.2z M435.5,184.3h-26.9V77.7h26.9L435.5,184.3L435.5,184.3z"/>
	<path class="st0" d="M519.1,181.9c-2.7,1.7-5.8,3-9.4,3.9s-7.1,1.3-10.7,1.3c-6.3,0-11.5-0.8-15.8-2.3s-7.7-3.9-10.3-7.1
		s-4.5-7.2-5.6-12.2c-1.2-4.9-1.8-10.7-1.8-17.3v-46.6h-14v-12c8.6-3.6,15.6-8.8,20.9-15.8s9-16.1,11-27.3h8.7v31.1H519v23.9h-26.9
		V150c0,2.7,0.3,4.9,1,6.6s1.6,3.1,2.7,4.1c1.1,1,2.4,1.7,3.8,2c1.4,0.4,2.9,0.6,4.5,0.6c2.1,0,4.6-0.4,7.5-1.1c3-0.7,5.5-2,7.5-3.7
		V181.9z"/>
	<path class="st0" d="M631.7,184.3h-26.5v-63.5c0-3.8-0.6-7.2-1.8-10c-1.2-2.9-2.7-5.3-4.7-7.2c-2-1.9-4.2-3.3-6.8-4.2
		c-2.5-0.9-5.2-1.4-7.9-1.4c-4.1,0-8.1,0.7-12,2.1c-4,1.4-7.5,3.7-10.7,6.7v77.5h-26.5V77.8h26.5l0.2,7.9c1.6-1.6,3.6-3.1,5.9-4.4
		s4.8-2.5,7.3-3.4c2.5-0.9,5.1-1.6,7.7-2.1c2.6-0.5,5.2-0.7,7.6-0.7c5.4,0,10.6,0.9,15.6,2.6s9.4,4.4,13.3,7.9s7,8.2,9.3,13.8
		c2.3,5.7,3.5,12.3,3.5,20.1L631.7,184.3L631.7,184.3z"/>
	<path class="st0" d="M761.9,130.9c0,1.7-0.1,3.5-0.3,5.3c-0.2,1.8-0.4,3.8-0.6,5.7h-85.1c1,3.1,2.4,6,4.1,8.8s4,5.2,6.5,7.2
		c2.6,2,5.5,3.6,8.8,4.8c3.2,1.2,6.8,1.8,10.8,1.8c4.8,0,9.6-0.8,14.4-2.5s8.8-3.9,12-6.7l16.8,16.8c-7.4,5.5-14.6,9.4-21.6,11.7
		c-7.1,2.3-14.5,3.4-22.4,3.4c-8,0-15.4-1.5-22.4-4.4s-13-6.9-18-12s-9.1-11-12.1-17.8s-4.4-14.1-4.4-21.8s1.5-15,4.4-21.8
		s7-12.7,12.2-17.8c5.2-5,11.2-9,18-12c6.9-2.9,14.2-4.4,22.1-4.4c7.5,0,14.7,1.4,21.5,4.1c6.9,2.8,13,6.6,18.2,11.5
		c5.3,4.9,9.5,10.8,12.5,17.6C760.3,115.2,761.9,122.7,761.9,130.9z M734.1,120.6c-2.1-6.8-5.8-12.2-11.1-16.3
		c-5.3-4.1-11.4-6.2-18.1-6.2c-6.6,0-12.6,2.1-17.9,6.2c-5.3,4.1-9,9.6-11,16.3H734.1z"/>
	<path class="st0" d="M856.5,154.5c0,5.3-1.2,10-3.7,14.1s-5.7,7.6-9.6,10.3s-8.4,4.9-13.3,6.3c-4.9,1.4-9.8,2.1-14.6,2.1
		c-8.1,0-15.6-1.5-22.4-4.5c-6.8-3-12.8-7.8-18-14.5l16-16.2c3.2,4.1,6.9,7.2,11,9.5c4.2,2.3,8.7,3.4,13.4,3.4
		c4.2,0,7.6-0.8,10.4-2.3c2.8-1.5,4.1-3.8,4.1-6.9c0-3.2-2-5.9-5.9-8c-3.9-2.1-9.5-4.3-16.6-6.4c-4.2-1.2-8.2-2.8-12.2-4.7
		c-3.9-1.9-7.4-4.2-10.5-7c-3.1-2.8-5.5-5.9-7.4-9.5c-1.8-3.6-2.8-7.7-2.8-12.3c0-5.2,1.2-9.8,3.6-13.9c2.4-4.1,5.5-7.6,9.4-10.3
		c3.9-2.8,8.3-4.9,13.2-6.3s9.9-2.2,15-2.2c16.2,0,29.5,6.1,39.9,18.4l-15.8,16c-3.1-3.8-6.6-6.8-10.5-9c-3.9-2.2-8.2-3.3-12.9-3.3
		c-1.6,0-3.3,0.2-5.1,0.6c-1.8,0.4-3.4,1.1-5,1.8c-1.5,0.8-2.8,1.8-3.8,3.1c-1,1.3-1.5,2.7-1.5,4.3c0,2.8,1.9,5.3,5.6,7.4
		c3.7,2.1,9.1,4.2,16.1,6.3c4.5,1.3,8.8,3.1,12.9,5.2c4,2.1,7.6,4.5,10.7,7.3c3.1,2.8,5.5,5.9,7.3,9.4
		C855.6,146.1,856.5,150.1,856.5,154.5z"/>
	<path class="st0" d="M951,154.5c0,5.3-1.2,10-3.7,14.1s-5.7,7.6-9.6,10.3s-8.4,4.9-13.3,6.3c-4.9,1.4-9.8,2.1-14.6,2.1
		c-8.1,0-15.6-1.5-22.4-4.5c-6.8-3-12.8-7.8-18-14.5l16-16.2c3.2,4.1,6.9,7.2,11,9.5c4.2,2.3,8.7,3.4,13.4,3.4
		c4.2,0,7.6-0.8,10.4-2.3c2.8-1.5,4.1-3.8,4.1-6.9c0-3.2-2-5.9-5.9-8c-3.9-2.1-9.5-4.3-16.6-6.4c-4.2-1.2-8.2-2.8-12.2-4.7
		c-3.9-1.9-7.4-4.2-10.5-7c-3.1-2.8-5.5-5.9-7.4-9.5c-1.8-3.6-2.8-7.7-2.8-12.3c0-5.2,1.2-9.8,3.6-13.9c2.4-4.1,5.5-7.6,9.4-10.3
		c3.9-2.8,8.3-4.9,13.2-6.3s9.9-2.2,15-2.2c16.2,0,29.5,6.1,39.9,18.4l-15.8,16c-3.1-3.8-6.6-6.8-10.5-9c-3.9-2.2-8.2-3.3-12.9-3.3
		c-1.6,0-3.3,0.2-5.1,0.6c-1.8,0.4-3.4,1.1-5,1.8c-1.5,0.8-2.8,1.8-3.8,3.1c-1,1.3-1.5,2.7-1.5,4.3c0,2.8,1.9,5.3,5.6,7.4
		c3.7,2.1,9.1,4.2,16.1,6.3c4.5,1.3,8.8,3.1,12.9,5.2c4,2.1,7.6,4.5,10.7,7.3c3.1,2.8,5.5,5.9,7.3,9.4
		C950.1,146.1,951,150.1,951,154.5z"/>
	<path class="st0" d="M1068.3,61.7h-69.2v34.2h68.3v23.2h-68.3v65.2h-28V37.2h97.2V61.7z"/>
	<path class="st0" d="M1159.5,88.9l-14.2,22.5c-2.6-2.8-5.4-5.3-8.6-7.5s-6.3-3.2-9.5-3.2c-1.7,0-3.6,0.4-5.6,1.2
		c-2,0.8-3.9,2.1-5.7,4c-1.8,1.8-3.3,4.3-4.5,7.3c-1.2,3-1.8,6.7-1.8,11.1v60h-26.5V77.8h26.5v11.4c3.2-4.5,6.7-8,10.6-10.5
		s8.2-3.7,13-3.7c4.7,0,9.2,1.3,13.7,3.8C1151.3,81.4,1155.6,84.7,1159.5,88.9z"/>
	<path class="st0" d="M1196.5,59.2h-27.6V31.6h27.6V59.2z M1196.1,184.3h-26.9V77.7h26.9V184.3z"/>
	<path class="st0" d="M1330.4,130.9c0,1.7-0.1,3.5-0.3,5.3s-0.4,3.8-0.6,5.7h-85.1c1,3.1,2.4,6,4.1,8.8s4,5.2,6.5,7.2
		c2.6,2,5.5,3.6,8.8,4.8c3.2,1.2,6.8,1.8,10.8,1.8c4.8,0,9.6-0.8,14.4-2.5c4.8-1.7,8.8-3.9,12-6.7l16.8,16.8
		c-7.4,5.5-14.6,9.4-21.6,11.7c-7.1,2.3-14.5,3.4-22.4,3.4c-8,0-15.4-1.5-22.4-4.4c-6.9-2.9-12.9-6.9-18.1-12
		c-5.1-5-9.1-11-12.1-17.8s-4.4-14.1-4.4-21.8s1.5-15,4.4-21.8c2.9-6.8,7-12.7,12.2-17.8s11.2-9,18.1-12c6.9-2.9,14.2-4.4,22.1-4.4
		c7.5,0,14.7,1.4,21.6,4.1c6.9,2.8,12.9,6.6,18.2,11.5c5.3,4.9,9.4,10.8,12.5,17.6C1328.8,115.2,1330.4,122.7,1330.4,130.9z
		 M1302.6,120.6c-2.1-6.8-5.8-12.2-11.1-16.3c-5.3-4.1-11.4-6.2-18.1-6.2c-6.6,0-12.6,2.1-17.9,6.2c-5.3,4.1-9,9.6-11.1,16.3H1302.6
		z"/>
	<path class="st0" d="M1443.8,184.3h-26.5v-63.5c0-3.8-0.6-7.2-1.8-10c-1.2-2.9-2.7-5.3-4.7-7.2c-2-1.9-4.2-3.3-6.8-4.2
		s-5.2-1.4-7.9-1.4c-4.1,0-8.1,0.7-12,2.1c-3.9,1.4-7.5,3.7-10.7,6.7v77.5H1347V77.8h26.5l0.2,7.9c1.6-1.6,3.6-3.1,5.9-4.4
		c2.3-1.3,4.8-2.5,7.3-3.4c2.5-0.9,5.1-1.6,7.7-2.1c2.6-0.5,5.2-0.7,7.6-0.7c5.4,0,10.6,0.9,15.6,2.6c5,1.7,9.4,4.4,13.3,7.9
		s7,8.2,9.3,13.8c2.3,5.7,3.5,12.3,3.5,20.1L1443.8,184.3L1443.8,184.3z"/>
	<path class="st0" d="M1562.8,184.3h-27.1v-5.5c-3.4,2.8-7.2,4.9-11.2,6.2c-4.1,1.3-8.3,1.9-12.9,1.9c-7.5,0-14.4-1.5-20.6-4.5
		c-6.3-3-11.7-7.1-16.2-12.1c-4.5-5.1-8.1-11-10.6-17.8c-2.5-6.8-3.8-13.9-3.8-21.4c0-8,1.4-15.4,4.3-22.2
		c2.9-6.8,6.7-12.7,11.5-17.8c4.8-5,10.2-9,16.4-11.9c6.1-2.9,12.5-4.3,19-4.3c4.5,0,9,0.6,13.3,1.8c4.3,1.2,8,2.9,11.1,5.2V31.4
		h26.9L1562.8,184.3L1562.8,184.3z M1536.1,155.8v-51.2c-1.2-0.9-2.7-1.7-4.2-2.5c-1.6-0.8-3.3-1.5-5-2c-1.7-0.6-3.4-1-5.2-1.3
		c-1.7-0.3-3.3-0.5-4.6-0.5c-4.4,0-8.5,0.8-12.1,2.3c-3.6,1.5-6.8,3.8-9.5,6.6c-2.7,2.9-4.8,6.3-6.3,10.4c-1.5,4.1-2.2,8.5-2.2,13.4
		c0,4.8,0.7,9.2,2.2,13.2c1.5,4,3.5,7.4,6.1,10.3c2.6,2.9,5.7,5.1,9.3,6.7c3.6,1.6,7.6,2.4,11.9,2.4
		C1523.5,163.7,1530.1,161,1536.1,155.8z"/>
</g>
</svg>
