<?xml version="1.0" encoding="utf-8"?>
<!-- Generator: Adobe Illustrator 25.0.0, SVG Export Plug-In . SVG Version: 6.00 Build 0)  -->
<svg version="1.1" id="Warstwa_1" xmlns="http://www.w3.org/2000/svg" xmlns:xlink="http://www.w3.org/1999/xlink" x="0px" y="0px"
	 viewBox="0 0 825.94 765.52" style="enable-background:new 0 0 825.94 765.52;" xml:space="preserve">
<style type="text/css">
	.st0{fill:none;stroke:#0053AD;stroke-width:3;stroke-miterlimit:10;}
	.st1{fill:none;stroke:#8E46C2;stroke-width:3;stroke-miterlimit:10;}
	.st2{fill:none;stroke:#DE6800;stroke-width:3;stroke-miterlimit:10;}
	.st3{fill:none;stroke:#FF0400;stroke-width:3;stroke-miterlimit:10;}
	.st4{fill:none;stroke:#5BAB00;stroke-width:3;stroke-miterlimit:10;}
	.st5{fill:none;stroke:#D10300;stroke-width:3;stroke-miterlimit:10;}
	.st6{fill:none;stroke:#0053AD;stroke-width:3;stroke-linecap:round;stroke-linejoin:round;stroke-miterlimit:10;}
</style>
<g>
	<path class="st0" d="M240.79,613.85L240.79,613.85c-7.37,0-13.35-5.97-13.35-13.35v-57.34c0-7.37,5.97-13.35,13.35-13.35h0
		c7.37,0,13.35,5.97,13.35,13.35v57.34C254.13,607.88,248.16,613.85,240.79,613.85z"/>
	<path class="st0" d="M264.72,602.96L264.72,602.96c-5.46,0-9.89-4.43-9.89-9.89V550.6c0-5.46,4.43-9.89,9.89-9.89l0,0
		c5.46,0,9.89,4.43,9.89,9.89v42.47C274.61,598.54,270.18,602.96,264.72,602.96z"/>
	<path class="st0" d="M110.1,613.85L110.1,613.85c7.37,0,13.35-5.97,13.35-13.35v-57.34c0-7.37-5.97-13.35-13.35-13.35h0
		c-7.37,0-13.35,5.97-13.35,13.35v57.34C96.75,607.88,102.73,613.85,110.1,613.85z"/>
	<path class="st0" d="M85.92,602.96L85.92,602.96c5.46,0,9.89-4.43,9.89-9.89V550.6c0-5.46-4.43-9.89-9.89-9.89h0
		c-5.46,0-9.89,4.43-9.89,9.89v42.47C76.03,598.54,80.46,602.96,85.92,602.96z"/>
	<path class="st0" d="M206.16,582.22h-61.43c-5.73,0-10.38-4.65-10.38-10.38l0,0c0-5.73,4.65-10.38,10.38-10.38h61.43
		c5.73,0,10.38,4.65,10.38,10.38l0,0C216.54,577.57,211.89,582.22,206.16,582.22z"/>
</g>
<g>
	<path class="st0" d="M142.53,327.21h-19.77c-6.02,0-10.89-4.88-10.89-10.89v-19.77c0-6.02,4.88-10.89,10.89-10.89h19.77
		c6.02,0,10.89,4.88,10.89,10.89v19.77C153.43,322.33,148.55,327.21,142.53,327.21z"/>
	<path class="st0" d="M199.32,327.21h-19.77c-6.02,0-10.89-4.88-10.89-10.89v-19.77c0-6.02,4.88-10.89,10.89-10.89h19.77
		c6.02,0,10.89,4.88,10.89,10.89v19.77C210.21,322.33,205.33,327.21,199.32,327.21z"/>
	<path class="st0" d="M256.1,327.21h-19.77c-6.02,0-10.89-4.88-10.89-10.89v-19.77c0-6.02,4.88-10.89,10.89-10.89h19.77
		c6.02,0,10.89,4.88,10.89,10.89v19.77C266.99,322.33,262.12,327.21,256.1,327.21z"/>
	<path class="st0" d="M312.88,327.21h-19.77c-6.02,0-10.89-4.88-10.89-10.89v-19.77c0-6.02,4.88-10.89,10.89-10.89h19.77
		c6.02,0,10.89,4.88,10.89,10.89v19.77C323.78,322.33,318.9,327.21,312.88,327.21z"/>
	<path class="st0" d="M369.67,327.21H349.9c-6.02,0-10.89-4.88-10.89-10.89v-19.77c0-6.02,4.88-10.89,10.89-10.89h19.77
		c6.02,0,10.89,4.88,10.89,10.89v19.77C380.56,322.33,375.68,327.21,369.67,327.21z"/>
	<path class="st0" d="M426.45,327.21h-19.77c-6.02,0-10.89-4.88-10.89-10.89v-19.77c0-6.02,4.88-10.89,10.89-10.89h19.77
		c6.02,0,10.89,4.88,10.89,10.89v19.77C437.35,322.33,432.47,327.21,426.45,327.21z"/>
	<path class="st0" d="M142.53,383.99h-19.77c-6.02,0-10.89-4.88-10.89-10.89v-19.77c0-6.02,4.88-10.89,10.89-10.89h19.77
		c6.02,0,10.89,4.88,10.89,10.89v19.77C153.43,379.11,148.55,383.99,142.53,383.99z"/>
	<path class="st0" d="M199.32,383.99h-19.77c-6.02,0-10.89-4.88-10.89-10.89v-19.77c0-6.02,4.88-10.89,10.89-10.89h19.77
		c6.02,0,10.89,4.88,10.89,10.89v19.77C210.21,379.11,205.33,383.99,199.32,383.99z"/>
	<path class="st0" d="M256.1,383.99h-19.77c-6.02,0-10.89-4.88-10.89-10.89v-19.77c0-6.02,4.88-10.89,10.89-10.89h19.77
		c6.02,0,10.89,4.88,10.89,10.89v19.77C266.99,379.11,262.12,383.99,256.1,383.99z"/>
	<path class="st0" d="M312.88,383.99h-19.77c-6.02,0-10.89-4.88-10.89-10.89v-19.77c0-6.02,4.88-10.89,10.89-10.89h19.77
		c6.02,0,10.89,4.88,10.89,10.89v19.77C323.78,379.11,318.9,383.99,312.88,383.99z"/>
	<path class="st0" d="M369.67,383.99H349.9c-6.02,0-10.89-4.88-10.89-10.89v-19.77c0-6.02,4.88-10.89,10.89-10.89h19.77
		c6.02,0,10.89,4.88,10.89,10.89v19.77C380.56,379.11,375.68,383.99,369.67,383.99z"/>
	<path class="st0" d="M426.45,383.99h-19.77c-6.02,0-10.89-4.88-10.89-10.89v-19.77c0-6.02,4.88-10.89,10.89-10.89h19.77
		c6.02,0,10.89,4.88,10.89,10.89v19.77C437.35,379.11,432.47,383.99,426.45,383.99z"/>
	<path class="st0" d="M142.53,440.77h-19.77c-6.02,0-10.89-4.88-10.89-10.89v-19.77c0-6.02,4.88-10.89,10.89-10.89h19.77
		c6.02,0,10.89,4.88,10.89,10.89v19.77C153.43,435.9,148.55,440.77,142.53,440.77z"/>
	<path class="st0" d="M199.32,440.77h-19.77c-6.02,0-10.89-4.88-10.89-10.89v-19.77c0-6.02,4.88-10.89,10.89-10.89h19.77
		c6.02,0,10.89,4.88,10.89,10.89v19.77C210.21,435.9,205.33,440.77,199.32,440.77z"/>
	<path class="st0" d="M256.1,440.77h-19.77c-6.02,0-10.89-4.88-10.89-10.89v-19.77c0-6.02,4.88-10.89,10.89-10.89h19.77
		c6.02,0,10.89,4.88,10.89,10.89v19.77C266.99,435.9,262.12,440.77,256.1,440.77z"/>
	<path class="st0" d="M312.88,440.77h-19.77c-6.02,0-10.89-4.88-10.89-10.89v-19.77c0-6.02,4.88-10.89,10.89-10.89h19.77
		c6.02,0,10.89,4.88,10.89,10.89v19.77C323.78,435.9,318.9,440.77,312.88,440.77z"/>
	<path class="st0" d="M369.67,440.77H349.9c-6.02,0-10.89-4.88-10.89-10.89v-19.77c0-6.02,4.88-10.89,10.89-10.89h19.77
		c6.02,0,10.89,4.88,10.89,10.89v19.77C380.56,435.9,375.68,440.77,369.67,440.77z"/>
	<path class="st0" d="M426.45,440.77h-19.77c-6.02,0-10.89-4.88-10.89-10.89v-19.77c0-6.02,4.88-10.89,10.89-10.89h19.77
		c6.02,0,10.89,4.88,10.89,10.89v19.77C437.35,435.9,432.47,440.77,426.45,440.77z"/>
	<path class="st1" d="M426.45,270.42H122.77c-6.02,0-10.89-4.88-10.89-10.89v-19.77c0-6.02,4.88-10.89,10.89-10.89h303.68
		c6.02,0,10.89,4.88,10.89,10.89v19.77C437.35,265.54,432.47,270.42,426.45,270.42z"/>
</g>
<g>
	<path class="st0" d="M729.39,566.05H598.11c-16.27,0-29.84-12.41-31.3-28.61l-14.08-156.98c-1.57-17.54,11.58-32.95,29.15-34.16
		l31.11-2.13c33.8-2.32,67.73-2.32,101.53,0l31.11,2.13c17.57,1.2,30.72,16.61,29.15,34.16l-14.08,156.98
		C759.23,553.64,745.66,566.05,729.39,566.05z"/>
	<path class="st1" d="M731.66,549.63H595.84c-3.43,0-6.21-2.78-6.21-6.21l0,0c0-3.43,2.78-6.21,6.21-6.21h135.81
		c3.43,0,6.21,2.78,6.21,6.21l0,0C737.87,546.85,735.09,549.63,731.66,549.63z"/>
	<path class="st2" d="M713.45,413.66h-99.39c-5.04,0-9.13-4.09-9.13-9.13v-28.13c0-5.04,4.09-9.13,9.13-9.13h99.39
		c5.04,0,9.13,4.09,9.13,9.13v28.13C722.58,409.57,718.49,413.66,713.45,413.66z"/>
</g>
<path class="st3" d="M801.15,135c-0.53,51.66-42.79,83.84-90.39,116.86c-2.66,1.85-6.2,1.85-8.86,0
	c-47.61-33.02-89.87-65.2-90.39-116.86c-0.38-37.52,62.45-79.82,94.24-13.77c0.24,0.5,0.94,0.5,1.18,0
	C738.7,55.18,801.53,97.48,801.15,135z"/>
<g>
	<path class="st4" d="M428.51,587.52c-3.02,5.45-1.74,11.23,0.51,17.88l8.17-10.96c1.06-1.42,1.63-3.16,1.51-4.92
		C438.29,583.39,430.75,583.47,428.51,587.52z"/>
	<path class="st5" d="M494.95,670.22c0,35.13-30.08,77.03-63.62,63.62c-33.53,13.41-63.62-28.48-63.62-63.62
		c0-35.14,28.35-59.2,63.62-47.51C466.6,611.02,494.95,635.08,494.95,670.22z"/>
	<path class="st0" d="M431.12,623.65c0.98-6.43-0.05-13.15-2.93-18.98c-2.88-5.83-7.58-10.75-13.27-13.88"/>
</g>
<circle class="st0" cx="175.44" cy="631.55" r="5.65"/>
<circle class="st0" cx="175.44" cy="654.89" r="5.65"/>
<circle class="st0" cx="175.44" cy="678.23" r="5.65"/>
<circle class="st0" cx="198.84" cy="678.23" r="5.65"/>
<circle class="st0" cx="222.24" cy="678.23" r="5.65"/>
<circle class="st0" cx="245.64" cy="678.23" r="5.65"/>
<circle class="st0" cx="269.04" cy="678.23" r="5.65"/>
<circle class="st0" cx="292.43" cy="678.23" r="5.65"/>
<circle class="st0" cx="315.83" cy="678.23" r="5.65"/>
<circle class="st0" cx="339.23" cy="678.23" r="5.65"/>
<circle class="st0" cx="459.85" cy="399.22" r="5.65"/>
<circle class="st0" cx="483.25" cy="399.22" r="5.65"/>
<circle class="st0" cx="506.64" cy="399.22" r="5.65"/>
<circle class="st0" cx="530.04" cy="399.22" r="5.65"/>
<circle class="st0" cx="523.56" cy="678.23" r="5.65"/>
<circle class="st0" cx="546.93" cy="678.23" r="5.65"/>
<circle class="st0" cx="570.29" cy="678.23" r="5.65"/>
<circle class="st0" cx="593.66" cy="678.23" r="5.65"/>
<circle class="st0" cx="617.02" cy="678.23" r="5.65"/>
<circle class="st0" cx="640.38" cy="678.23" r="5.65"/>
<circle class="st0" cx="663.75" cy="678.23" r="5.65"/>
<circle class="st0" cx="173.07" cy="117.51" r="5.65"/>
<circle class="st0" cx="196.43" cy="117.51" r="5.65"/>
<circle class="st0" cx="219.52" cy="117.51" r="5.65"/>
<circle class="st0" cx="242.89" cy="117.51" r="5.65"/>
<circle class="st0" cx="266.25" cy="117.51" r="5.65"/>
<circle class="st0" cx="287.83" cy="117.51" r="5.65"/>
<circle class="st0" cx="311.19" cy="117.51" r="5.65"/>
<circle class="st0" cx="334.56" cy="117.51" r="5.65"/>
<circle class="st0" cx="357.92" cy="117.51" r="5.65"/>
<circle class="st0" cx="381.29" cy="117.51" r="5.65"/>
<circle class="st0" cx="404.65" cy="117.51" r="5.65"/>
<circle class="st0" cx="428.02" cy="117.51" r="5.65"/>
<circle class="st0" cx="449.59" cy="117.51" r="5.65"/>
<circle class="st0" cx="472.96" cy="117.51" r="5.65"/>
<circle class="st0" cx="496.32" cy="117.51" r="5.65"/>
<circle class="st0" cx="519.69" cy="117.51" r="5.65"/>
<circle class="st0" cx="543.05" cy="117.51" r="5.65"/>
<circle class="st0" cx="566.42" cy="117.51" r="5.65"/>
<circle class="st0" cx="589.78" cy="117.51" r="5.65"/>
<circle class="st0" cx="663.75" cy="654.82" r="5.65"/>
<circle class="st0" cx="663.75" cy="631.42" r="5.65"/>
<circle class="st0" cx="663.75" cy="608.02" r="5.65"/>
<circle class="st0" cx="172.96" cy="187.71" r="5.65"/>
<circle class="st0" cx="172.96" cy="164.31" r="5.65"/>
<circle class="st0" cx="172.96" cy="140.91" r="5.65"/>
<circle class="st0" cx="110.1" cy="713.2" r="16.4"/>
<circle class="st0" cx="758.49" cy="642.64" r="16.4"/>
<circle class="st0" cx="543.05" cy="235.18" r="16.4"/>
<path class="st6" d="M457.04,504.54c-15.44,4.19-23.38,13.93-25.29,29.36c-3.28-15.43-10.16-25.59-26.14-28.6
	c17.03-2.82,23.81-14.79,26.34-26.53C433.87,494.75,441.07,501.42,457.04,504.54z"/>
<path class="st6" d="M76.03,240.15c-15.44,4.19-23.38,13.93-25.29,29.36c-3.28-15.43-10.16-25.59-26.14-28.6
	c17.03-2.82,23.81-14.79,26.34-26.53C52.86,230.37,60.06,237.04,76.03,240.15z"/>
<path class="st6" d="M555.76,45.88c-15.44,4.19-23.38,13.93-25.29,29.36c-3.28-15.43-10.16-25.59-26.14-28.6
	c17.03-2.82,23.81-14.79,26.34-26.53C532.59,36.1,539.79,42.77,555.76,45.88z"/>
<path class="st6" d="M800.61,286.56c-15.44,4.19-23.38,13.93-25.29,29.36c-3.28-15.43-10.16-25.59-26.14-28.6
	c17.03-2.82,23.81-14.79,26.34-26.53C777.44,276.78,784.64,283.45,800.61,286.56z"/>
</svg>
