<?xml version="1.0" encoding="utf-8"?>
<!-- Generator: Adobe Illustrator 25.0.0, SVG Export Plug-In . SVG Version: 6.00 Build 0)  -->
<svg version="1.1" id="Warstwa_1" xmlns="http://www.w3.org/2000/svg" xmlns:xlink="http://www.w3.org/1999/xlink" x="0px" y="0px"
	 viewBox="0 0 901.98 751.65" style="enable-background:new 0 0 901.98 751.65;" xml:space="preserve">
<style type="text/css">
	.st0{fill:none;stroke:#0053AD;stroke-width:3;stroke-miterlimit:10;}
	.st1{fill:none;stroke:#8E46C2;stroke-width:3;stroke-miterlimit:10;}
	.st2{fill:none;stroke:#DE6800;stroke-width:3;stroke-miterlimit:10;}
	.st3{fill:none;stroke:#FF0400;stroke-width:3;stroke-miterlimit:10;}
	.st4{fill:none;stroke:#5BAB00;stroke-width:3;stroke-miterlimit:10;}
	.st5{fill:none;stroke:#D10300;stroke-width:3;stroke-miterlimit:10;}
</style>
<g>
	<path class="st0" d="M271.79,609.59L271.79,609.59c-7.37,0-13.35-5.97-13.35-13.35v-57.34c0-7.37,5.97-13.35,13.35-13.35h0
		c7.37,0,13.35,5.97,13.35,13.35v57.34C285.14,603.62,279.16,609.59,271.79,609.59z"/>
	<path class="st0" d="M295.73,598.7L295.73,598.7c-5.46,0-9.89-4.43-9.89-9.89v-42.47c0-5.46,4.43-9.89,9.89-9.89l0,0
		c5.46,0,9.89,4.43,9.89,9.89v42.47C305.61,594.27,301.19,598.7,295.73,598.7z"/>
	<path class="st0" d="M141.11,609.59L141.11,609.59c7.37,0,13.35-5.97,13.35-13.35v-57.34c0-7.37-5.97-13.35-13.35-13.35h0
		c-7.37,0-13.35,5.97-13.35,13.35v57.34C127.76,603.62,133.74,609.59,141.11,609.59z"/>
	<path class="st0" d="M116.92,598.7L116.92,598.7c5.46,0,9.89-4.43,9.89-9.89v-42.47c0-5.46-4.43-9.89-9.89-9.89h0
		c-5.46,0-9.89,4.43-9.89,9.89v42.47C107.04,594.27,111.46,598.7,116.92,598.7z"/>
	<path class="st0" d="M237.16,577.96h-61.43c-5.73,0-10.38-4.65-10.38-10.38l0,0c0-5.73,4.65-10.38,10.38-10.38h61.43
		c5.73,0,10.38,4.65,10.38,10.38l0,0C247.54,573.31,242.9,577.96,237.16,577.96z"/>
</g>
<g>
	<path class="st0" d="M173.54,322.94h-19.77c-6.02,0-10.89-4.88-10.89-10.89v-19.77c0-6.02,4.88-10.89,10.89-10.89h19.77
		c6.02,0,10.89,4.88,10.89,10.89v19.77C184.43,318.07,179.56,322.94,173.54,322.94z"/>
	<path class="st0" d="M230.32,322.94h-19.77c-6.02,0-10.89-4.88-10.89-10.89v-19.77c0-6.02,4.88-10.89,10.89-10.89h19.77
		c6.02,0,10.89,4.88,10.89,10.89v19.77C241.22,318.07,236.34,322.94,230.32,322.94z"/>
	<path class="st0" d="M287.11,322.94h-19.77c-6.02,0-10.89-4.88-10.89-10.89v-19.77c0-6.02,4.88-10.89,10.89-10.89h19.77
		c6.02,0,10.89,4.88,10.89,10.89v19.77C298,318.07,293.12,322.94,287.11,322.94z"/>
	<path class="st0" d="M343.89,322.94h-19.77c-6.02,0-10.89-4.88-10.89-10.89v-19.77c0-6.02,4.88-10.89,10.89-10.89h19.77
		c6.02,0,10.89,4.88,10.89,10.89v19.77C354.78,318.07,349.91,322.94,343.89,322.94z"/>
	<path class="st0" d="M400.67,322.94h-19.77c-6.02,0-10.89-4.88-10.89-10.89v-19.77c0-6.02,4.88-10.89,10.89-10.89h19.77
		c6.02,0,10.89,4.88,10.89,10.89v19.77C411.57,318.07,406.69,322.94,400.67,322.94z"/>
	<path class="st0" d="M457.46,322.94h-19.77c-6.02,0-10.89-4.88-10.89-10.89v-19.77c0-6.02,4.88-10.89,10.89-10.89h19.77
		c6.02,0,10.89,4.88,10.89,10.89v19.77C468.35,318.07,463.47,322.94,457.46,322.94z"/>
	<path class="st0" d="M173.54,379.73h-19.77c-6.02,0-10.89-4.88-10.89-10.89v-19.77c0-6.02,4.88-10.89,10.89-10.89h19.77
		c6.02,0,10.89,4.88,10.89,10.89v19.77C184.43,374.85,179.56,379.73,173.54,379.73z"/>
	<path class="st0" d="M230.32,379.73h-19.77c-6.02,0-10.89-4.88-10.89-10.89v-19.77c0-6.02,4.88-10.89,10.89-10.89h19.77
		c6.02,0,10.89,4.88,10.89,10.89v19.77C241.22,374.85,236.34,379.73,230.32,379.73z"/>
	<path class="st0" d="M287.11,379.73h-19.77c-6.02,0-10.89-4.88-10.89-10.89v-19.77c0-6.02,4.88-10.89,10.89-10.89h19.77
		c6.02,0,10.89,4.88,10.89,10.89v19.77C298,374.85,293.12,379.73,287.11,379.73z"/>
	<path class="st0" d="M343.89,379.73h-19.77c-6.02,0-10.89-4.88-10.89-10.89v-19.77c0-6.02,4.88-10.89,10.89-10.89h19.77
		c6.02,0,10.89,4.88,10.89,10.89v19.77C354.78,374.85,349.91,379.73,343.89,379.73z"/>
	<path class="st0" d="M400.67,379.73h-19.77c-6.02,0-10.89-4.88-10.89-10.89v-19.77c0-6.02,4.88-10.89,10.89-10.89h19.77
		c6.02,0,10.89,4.88,10.89,10.89v19.77C411.57,374.85,406.69,379.73,400.67,379.73z"/>
	<path class="st0" d="M457.46,379.73h-19.77c-6.02,0-10.89-4.88-10.89-10.89v-19.77c0-6.02,4.88-10.89,10.89-10.89h19.77
		c6.02,0,10.89,4.88,10.89,10.89v19.77C468.35,374.85,463.47,379.73,457.46,379.73z"/>
	<path class="st0" d="M173.54,436.51h-19.77c-6.02,0-10.89-4.88-10.89-10.89v-19.77c0-6.02,4.88-10.89,10.89-10.89h19.77
		c6.02,0,10.89,4.88,10.89,10.89v19.77C184.43,431.63,179.56,436.51,173.54,436.51z"/>
	<path class="st0" d="M230.32,436.51h-19.77c-6.02,0-10.89-4.88-10.89-10.89v-19.77c0-6.02,4.88-10.89,10.89-10.89h19.77
		c6.02,0,10.89,4.88,10.89,10.89v19.77C241.22,431.63,236.34,436.51,230.32,436.51z"/>
	<path class="st0" d="M287.11,436.51h-19.77c-6.02,0-10.89-4.88-10.89-10.89v-19.77c0-6.02,4.88-10.89,10.89-10.89h19.77
		c6.02,0,10.89,4.88,10.89,10.89v19.77C298,431.63,293.12,436.51,287.11,436.51z"/>
	<path class="st0" d="M343.89,436.51h-19.77c-6.02,0-10.89-4.88-10.89-10.89v-19.77c0-6.02,4.88-10.89,10.89-10.89h19.77
		c6.02,0,10.89,4.88,10.89,10.89v19.77C354.78,431.63,349.91,436.51,343.89,436.51z"/>
	<path class="st0" d="M400.67,436.51h-19.77c-6.02,0-10.89-4.88-10.89-10.89v-19.77c0-6.02,4.88-10.89,10.89-10.89h19.77
		c6.02,0,10.89,4.88,10.89,10.89v19.77C411.57,431.63,406.69,436.51,400.67,436.51z"/>
	<path class="st0" d="M457.46,436.51h-19.77c-6.02,0-10.89-4.88-10.89-10.89v-19.77c0-6.02,4.88-10.89,10.89-10.89h19.77
		c6.02,0,10.89,4.88,10.89,10.89v19.77C468.35,431.63,463.47,436.51,457.46,436.51z"/>
	<path class="st1" d="M457.46,266.16H153.77c-6.02,0-10.89-4.88-10.89-10.89V235.5c0-6.02,4.88-10.89,10.89-10.89h303.68
		c6.02,0,10.89,4.88,10.89,10.89v19.77C468.35,261.28,463.47,266.16,457.46,266.16z"/>
</g>
<g>
	<path class="st0" d="M760.4,561.79H629.11c-16.27,0-29.84-12.41-31.3-28.61L583.74,376.2c-1.57-17.54,11.58-32.95,29.15-34.16
		l31.11-2.13c33.8-2.32,67.73-2.32,101.53,0l31.11,2.13c17.57,1.2,30.72,16.61,29.15,34.16l-14.08,156.98
		C790.24,549.38,776.66,561.79,760.4,561.79z"/>
	<path class="st1" d="M762.66,545.37H626.85c-3.43,0-6.21-2.78-6.21-6.21l0,0c0-3.43,2.78-6.21,6.21-6.21h135.81
		c3.43,0,6.21,2.78,6.21,6.21l0,0C768.87,542.59,766.09,545.37,762.66,545.37z"/>
	<path class="st2" d="M744.45,409.4h-99.39c-5.04,0-9.13-4.09-9.13-9.13v-28.13c0-5.04,4.09-9.13,9.13-9.13h99.39
		c5.04,0,9.13,4.09,9.13,9.13v28.13C753.59,405.31,749.5,409.4,744.45,409.4z"/>
</g>
<path class="st3" d="M832.16,130.74c-0.53,51.66-42.79,83.84-90.39,116.86c-2.66,1.85-6.2,1.85-8.86,0
	c-47.61-33.02-89.87-65.2-90.39-116.86c-0.38-37.52,62.45-79.82,94.24-13.77c0.24,0.5,0.94,0.5,1.18,0
	C769.7,50.92,832.54,93.22,832.16,130.74z"/>
<g>
	<path class="st4" d="M459.51,583.25c-3.02,5.45-1.74,11.23,0.51,17.88l8.17-10.96c1.06-1.42,1.63-3.16,1.51-4.92
		C469.3,579.13,461.75,579.21,459.51,583.25z"/>
	<path class="st5" d="M525.95,665.96c0,35.13-30.08,77.03-63.62,63.62c-33.53,13.41-63.62-28.48-63.62-63.62
		c0-35.14,28.35-59.2,63.62-47.51C497.6,606.76,525.95,630.82,525.95,665.96z"/>
	<path class="st0" d="M462.13,619.39c0.98-6.43-0.05-13.15-2.93-18.98c-2.88-5.83-7.58-10.75-13.27-13.88"/>
</g>
<circle class="st0" cx="206.45" cy="627.28" r="5.65"/>
<circle class="st0" cx="206.45" cy="650.62" r="5.65"/>
<circle class="st0" cx="206.45" cy="673.96" r="5.65"/>
<circle class="st0" cx="229.85" cy="673.96" r="5.65"/>
<circle class="st0" cx="253.25" cy="673.96" r="5.65"/>
<circle class="st0" cx="276.64" cy="673.96" r="5.65"/>
<circle class="st0" cx="300.04" cy="673.96" r="5.65"/>
<circle class="st0" cx="323.44" cy="673.96" r="5.65"/>
<circle class="st0" cx="346.84" cy="673.96" r="5.65"/>
<circle class="st0" cx="370.24" cy="673.96" r="5.65"/>
<circle class="st0" cx="490.85" cy="394.96" r="5.65"/>
<circle class="st0" cx="514.25" cy="394.96" r="5.65"/>
<circle class="st0" cx="537.65" cy="394.96" r="5.65"/>
<circle class="st0" cx="561.05" cy="394.96" r="5.65"/>
<circle class="st0" cx="554.57" cy="673.96" r="5.65"/>
<circle class="st0" cx="577.93" cy="673.96" r="5.65"/>
<circle class="st0" cx="601.3" cy="673.96" r="5.65"/>
<circle class="st0" cx="624.66" cy="673.96" r="5.65"/>
<circle class="st0" cx="648.03" cy="673.96" r="5.65"/>
<circle class="st0" cx="671.39" cy="673.96" r="5.65"/>
<circle class="st0" cx="694.76" cy="673.96" r="5.65"/>
<circle class="st0" cx="204.07" cy="113.25" r="5.65"/>
<circle class="st0" cx="227.44" cy="113.25" r="5.65"/>
<circle class="st0" cx="250.53" cy="113.25" r="5.65"/>
<circle class="st0" cx="273.89" cy="113.25" r="5.65"/>
<circle class="st0" cx="297.26" cy="113.25" r="5.65"/>
<circle class="st0" cx="318.84" cy="113.25" r="5.65"/>
<circle class="st0" cx="342.2" cy="113.25" r="5.65"/>
<circle class="st0" cx="365.56" cy="113.25" r="5.65"/>
<circle class="st0" cx="388.93" cy="113.25" r="5.65"/>
<circle class="st0" cx="412.29" cy="113.25" r="5.65"/>
<circle class="st0" cx="435.66" cy="113.25" r="5.65"/>
<circle class="st0" cx="459.02" cy="113.25" r="5.65"/>
<circle class="st0" cx="480.6" cy="113.25" r="5.65"/>
<circle class="st0" cx="503.96" cy="113.25" r="5.65"/>
<circle class="st0" cx="527.33" cy="113.25" r="5.65"/>
<circle class="st0" cx="550.69" cy="113.25" r="5.65"/>
<circle class="st0" cx="574.06" cy="113.25" r="5.65"/>
<circle class="st0" cx="597.42" cy="113.25" r="5.65"/>
<circle class="st0" cx="620.79" cy="113.25" r="5.65"/>
<circle class="st0" cx="694.76" cy="650.56" r="5.65"/>
<circle class="st0" cx="694.76" cy="627.16" r="5.65"/>
<circle class="st0" cx="694.76" cy="603.76" r="5.65"/>
<circle class="st0" cx="203.97" cy="183.45" r="5.65"/>
<circle class="st0" cx="203.97" cy="160.05" r="5.65"/>
<circle class="st0" cx="203.97" cy="136.65" r="5.65"/>
<circle class="st0" cx="127.76" cy="708.94" r="16.4"/>
<circle class="st0" cx="463.72" cy="509.16" r="16.4"/>
<circle class="st0" cx="805.9" cy="720.6" r="16.4"/>
<circle class="st0" cx="697.22" cy="27.35" r="16.4"/>
<circle class="st0" cx="579.71" cy="254.1" r="16.4"/>
<circle class="st0" cx="86.22" cy="249.41" r="16.4"/>
</svg>
