<?xml version="1.0" encoding="utf-8"?>
<!-- Generator: Adobe Illustrator 25.2.0, SVG Export Plug-In . SVG Version: 6.00 Build 0)  -->
<svg version="1.1" id="Warstwa_1" xmlns="http://www.w3.org/2000/svg" xmlns:xlink="http://www.w3.org/1999/xlink" x="0px" y="0px"
	 viewBox="0 0 1000 1000" style="enable-background:new 0 0 1000 1000;" xml:space="preserve">
<style type="text/css">
	.st0{fill:#D48B2A;}
	.st1{fill:#A16C27;}
	.st2{fill:#D67234;}
</style>
<path class="st0" d="M500,101.26c-220.98,0-400.12,179.14-400.12,400.12S279.02,901.51,500,901.51s400.12-179.14,400.12-400.12
	S720.98,101.26,500,101.26z M500,884.89c-211.8,0-383.51-171.71-383.51-383.51S288.2,117.88,500,117.88s383.51,171.71,383.51,383.51
	S711.8,884.89,500,884.89z"/>
<g>
	<path class="st1" d="M500,1.58c-95.06,0-183.9,26.61-259.48,72.8c-13.86,8.46-27.26,17.58-40.18,27.33
		c-11.87,8.92-23.32,18.37-34.32,28.31c-34.29,30.99-64.25,66.65-88.87,106.01C29.26,312.58,1.58,403.06,1.58,500
		c0,275.27,223.15,498.42,498.42,498.42c96.94,0,187.42-27.68,263.97-75.58c39.36-24.6,75.03-54.56,106.01-88.86
		c9.94-11.01,19.4-22.46,28.33-34.32c9.73-12.92,18.86-26.32,27.32-40.18c46.19-75.58,72.8-164.42,72.8-259.48
		C998.42,224.73,775.27,1.58,500,1.58z M881.11,714.97c-8.03,14.23-16.84,27.95-26.37,41.13c-8.71,12.06-18.04,23.65-27.9,34.74
		c-30.79,34.57-66.97,64.23-107.24,87.63C655.06,916,580.04,937.5,500,937.5C258.38,937.5,62.5,741.62,62.5,500
		c0-80.04,21.5-155.06,59.04-219.6c23.4-40.28,53.05-76.45,87.63-107.24c11.09-9.86,22.68-19.19,34.74-27.9
		c13.18-9.54,26.9-18.34,41.13-26.37C348.52,82.97,421.87,62.5,500,62.5c241.62,0,437.5,195.88,437.5,437.5
		C937.5,578.13,917.03,651.48,881.11,714.97z"/>
	<path class="st0" d="M166.02,130.02l43.14,43.14c-34.57,30.79-64.23,66.97-87.63,107.24l-44.39-44.37
		C101.76,196.67,131.72,161,166.02,130.02z"/>
	<path class="st0" d="M869.98,833.98c-30.99,34.29-66.65,64.25-106.01,88.86l-44.37-44.37c40.28-23.4,76.45-53.05,107.24-87.63
		L869.98,833.98z"/>
	<path class="st0" d="M240.52,74.38l44.51,44.51c-14.23,8.03-27.95,16.84-41.13,26.37l-43.56-43.56
		C213.26,91.96,226.66,82.84,240.52,74.38z"/>
	<path class="st0" d="M925.62,759.48c-8.46,13.86-17.58,27.26-27.32,40.18l-43.57-43.56c9.54-13.18,18.34-26.9,26.37-41.13
		L925.62,759.48z"/>
</g>
<g>
	<g>
		<path class="st2" d="M789.22,462.52h-10.67v-40.73c0-16.22-13.2-29.42-29.42-29.42h-20.04c-3.76,0-7.36,0.72-10.67,2.01V381.7
			c0-16.22-13.2-29.42-29.42-29.42h-40.09c-16.22,0-29.42,13.2-29.42,29.42v80.82H377.69V381.7c0-16.22-13.2-29.42-29.42-29.42
			h-40.09c-16.22,0-29.42,13.2-29.42,29.42v12.68c-3.31-1.29-6.9-2.01-10.67-2.01h-20.04c-16.22,0-29.42,13.2-29.42,29.42v40.73
			h-10.67c-16.22,0-29.42,13.2-29.42,29.42v40.09c0,16.22,13.2,29.42,29.42,29.42h10.67v40.73c0,16.22,13.2,29.42,29.42,29.42h20.04
			c3.76,0,7.36-0.72,10.67-2.01v12.68c0,16.22,13.2,29.42,29.42,29.42h40.09c16.22,0,29.42-13.2,29.42-29.42v-80.82H619.5v80.82
			c0,16.22,13.2,29.42,29.42,29.42H689c16.22,0,29.42-13.2,29.42-29.42v-12.68c3.31,1.29,6.9,2.01,10.67,2.01h20.04
			c16.22,0,29.42-13.2,29.42-29.42v-40.73h10.67c16.22,0,29.42-13.2,29.42-29.42v-40.09C818.64,475.71,805.44,462.52,789.22,462.52z
			 M218.64,542.69h-10.67v0c-5.88,0-10.67-4.79-10.67-10.67v-40.09c0-5.88,4.79-10.67,10.67-10.67h10.67V542.69z M348.27,652.93
			h-40.09c-5.88,0-10.67-4.79-10.67-10.67v-50.11c0-5.18-4.2-9.38-9.38-9.38c-5.18,0-9.38,4.2-9.38,9.38v10.02
			c0,5.88-4.79,10.67-10.67,10.67h-20.04c-5.88,0-10.67-4.79-10.67-10.67V421.78c0-5.88,4.79-10.67,10.67-10.67h20.04
			c5.88,0,10.67,4.79,10.67,10.67v130.28c0,5.18,4.2,9.38,9.38,9.38c5.18,0,9.38-4.2,9.38-9.38V381.7c0-5.88,4.79-10.67,10.67-10.67
			h40.09c5.88,0,10.67,4.79,10.67,10.67v260.56h0C358.94,648.14,354.15,652.93,348.27,652.93z M619.5,542.69H377.69v-61.42H619.5
			V542.69z M759.8,602.17c0,5.88-4.79,10.67-10.67,10.67h-20.04c-5.88,0-10.67-4.79-10.67-10.67V471.89c0-5.18-4.2-9.38-9.38-9.38
			s-9.38,4.2-9.38,9.38v170.37c0,5.88-4.79,10.67-10.67,10.67h-40.09c-5.88,0-10.67-4.79-10.67-10.67V381.7
			c0-5.88,4.79-10.67,10.67-10.67h40.09c5.88,0,10.67,4.79,10.67,10.67v50.11c0,5.18,4.2,9.38,9.38,9.38s9.38-4.2,9.38-9.38v-10.02
			c0-5.88,4.79-10.67,10.67-10.67h20.04c5.88,0,10.67,4.79,10.67,10.67V602.17z M799.89,532.02c0,5.88-4.79,10.67-10.67,10.67
			h-10.67v-61.42h10.67c5.88,0,10.67,4.79,10.67,10.67V532.02z"/>
	</g>
</g>
</svg>
