<?xml version="1.0" encoding="utf-8"?>
<!-- Generator: Adobe Illustrator 25.2.0, SVG Export Plug-In . SVG Version: 6.00 Build 0)  -->
<svg version="1.1" id="Warstwa_1" xmlns="http://www.w3.org/2000/svg" xmlns:xlink="http://www.w3.org/1999/xlink" x="0px" y="0px"
	 viewBox="0 0 1000 1000" style="enable-background:new 0 0 1000 1000;" xml:space="preserve">
<style type="text/css">
	.st0{fill:#F8DA48;}
	.st1{fill:#FDC54A;}
	.st2{fill:#EA9F42;}
</style>
<path class="st0" d="M502.42,104.48c-218.81,0-396.19,177.38-396.19,396.19s177.38,396.19,396.19,396.19
	s396.19-177.38,396.19-396.19S721.23,104.48,502.42,104.48z M502.42,880.41c-209.72,0-379.74-170.02-379.74-379.74
	S292.7,120.93,502.42,120.93s379.74,170.02,379.74,379.74S712.14,880.41,502.42,880.41z"/>
<g>
	<path class="st1" d="M502.42,5.77c-94.13,0-182.1,26.35-256.94,72.08c-13.72,8.38-26.99,17.41-39.78,27.06
		c-11.75,8.83-23.09,18.19-33.98,28.04c-33.96,30.68-63.62,66-88,104.97C36.3,313.72,8.89,403.31,8.89,499.3
		c0,272.56,220.96,493.53,493.53,493.53c95.99,0,185.58-27.4,261.38-74.84c38.98-24.36,74.29-54.03,104.97-87.98
		c9.84-10.9,19.21-22.24,28.05-33.98c9.64-12.79,18.67-26.06,27.05-39.78c45.73-74.84,72.08-162.81,72.08-256.94
		C995.95,226.74,774.98,5.77,502.42,5.77z M879.79,712.16c-7.95,14.09-16.67,27.68-26.12,40.73c-8.62,11.94-17.86,23.42-27.62,34.4
		c-30.49,34.23-66.31,63.6-106.19,86.76c-63.9,37.17-138.19,58.46-217.44,58.46c-239.25,0-433.21-193.96-433.21-433.21
		c0-79.25,21.29-153.54,58.46-217.44c23.17-39.88,52.53-75.7,86.76-106.19c10.98-9.76,22.46-19,34.4-27.62
		c13.05-9.45,26.64-18.16,40.73-26.12c62.87-35.56,135.5-55.84,212.86-55.84c239.25,0,433.21,193.96,433.21,433.21
		C935.63,576.66,915.35,649.29,879.79,712.16z"/>
	<path class="st0" d="M171.71,132.95l42.72,42.72c-34.23,30.49-63.6,66.31-86.76,106.19l-43.95-43.94
		C108.09,198.95,137.76,163.63,171.71,132.95z"/>
	<path class="st0" d="M868.77,830c-30.68,33.96-66,63.62-104.97,87.98l-43.94-43.94c39.88-23.17,75.7-52.53,106.19-86.76L868.77,830
		z"/>
	<path class="st0" d="M245.48,77.85l44.07,44.07c-14.09,7.95-27.68,16.67-40.73,26.12l-43.13-43.13
		C218.49,95.27,231.76,86.23,245.48,77.85z"/>
	<path class="st0" d="M923.86,756.23c-8.38,13.72-17.41,26.99-27.05,39.78l-43.14-43.13c9.45-13.05,18.16-26.64,26.12-40.73
		L923.86,756.23z"/>
</g>
<g>
	<polygon class="st0" points="709.05,-22.49 727.32,159.38 842.06,191.91 929.93,-118.04 811.2,19.29 	"/>
	<polygon class="st1" points="1067.8,79.21 956.81,224.44 842.06,191.91 929.93,-118.04 958.92,61.17 	"/>
</g>
<g>
	<g>
		<path class="st2" d="M793.63,444.66h-10.56v-40.33c0-16.06-13.07-29.13-29.13-29.13h-19.85c-3.72,0-7.29,0.71-10.56,1.99v-12.55
			c0-16.06-13.07-29.13-29.13-29.13h-39.69c-16.06,0-29.13,13.07-29.13,29.13v80.02H386.14v-80.02c0-16.06-13.07-29.13-29.13-29.13
			h-39.69c-16.06,0-29.13,13.07-29.13,29.13v12.55c-3.28-1.28-6.84-1.99-10.56-1.99h-19.85c-16.06,0-29.13,13.07-29.13,29.13v40.33
			h-10.56c-16.06,0-29.13,13.07-29.13,29.13v39.69c0,16.06,13.07,29.13,29.13,29.13h10.56v40.33c0,16.06,13.07,29.13,29.13,29.13
			h19.85c3.72,0,7.29-0.71,10.56-1.99v12.55c0,16.06,13.07,29.13,29.13,29.13h39.69c16.06,0,29.13-13.07,29.13-29.13v-80.02h239.43
			v80.02c0,16.06,13.07,29.13,29.13,29.13h39.69c16.06,0,29.13-13.07,29.13-29.13v-12.55c3.28,1.28,6.84,1.99,10.56,1.99h19.85
			c16.06,0,29.13-13.07,29.13-29.13v-40.33h10.56c16.06,0,29.13-13.07,29.13-29.13v-39.69
			C822.76,457.73,809.69,444.66,793.63,444.66z M228.65,524.05h-10.56v0c-5.82,0-10.56-4.74-10.56-10.56v-39.69
			c0-5.82,4.74-10.56,10.56-10.56h10.56V524.05z M357.01,633.2h-39.69c-5.82,0-10.56-4.74-10.56-10.56v-49.62
			c0-5.13-4.16-9.28-9.28-9.28c-5.13,0-9.28,4.16-9.28,9.28v9.92c0,5.82-4.74,10.56-10.56,10.56h-19.85
			c-5.82,0-10.56-4.74-10.56-10.56V404.33c0-5.82,4.74-10.56,10.56-10.56h19.85c5.82,0,10.56,4.74,10.56,10.56v129
			c0,5.13,4.16,9.28,9.28,9.28s9.28-4.16,9.28-9.28v-168.7c0-5.82,4.74-10.56,10.56-10.56h39.69c5.82,0,10.56,4.74,10.56,10.56v258
			h0C367.57,628.46,362.83,633.2,357.01,633.2z M625.57,524.04H386.14v-60.82h239.43V524.04z M764.5,582.94
			c0,5.82-4.74,10.56-10.56,10.56h-19.85c-5.82,0-10.56-4.74-10.56-10.56v-129c0-5.13-4.16-9.28-9.28-9.28s-9.28,4.16-9.28,9.28
			v168.7c0,5.82-4.74,10.56-10.56,10.56h-39.69c-5.82,0-10.56-4.74-10.56-10.56v-258c0-5.82,4.74-10.56,10.56-10.56h39.69
			c5.82,0,10.56,4.74,10.56,10.56v49.62c0,5.13,4.16,9.28,9.28,9.28s9.28-4.16,9.28-9.28v-9.92c0-5.82,4.74-10.56,10.56-10.56h19.85
			c5.82,0,10.56,4.74,10.56,10.56V582.94z M804.19,513.48c0,5.82-4.74,10.56-10.56,10.56h-10.56v-60.82h10.56
			c5.82,0,10.56,4.74,10.56,10.56V513.48z"/>
	</g>
</g>
</svg>
